<svg aria-label="A chart." style="overflow: hidden;" height="300"
                    width="450">
                    <defs id="defs"></defs>
                         <path fill="darkgreen" stroke-width="1" stroke="darkgreen" d="M150.00000000,120.00000000 L150.00000000,62.00000000 A90.00000000,60.00000000,0,0,1,235.59508647,103.45898034 M235.59508647,103.45898034 L150.00000000,120.00000000"></path><path fill="darkgreen" stroke-width="1" stroke="darkgreen" d="M150.00000000,120.00000000 L235.59508647,103.45898034 A90.00000000,60.00000000,0,0,1,202.90067271,170.54101966 M202.90067271,170.54101966 L150.00000000,120.00000000"></path><path fill="darkgreen" stroke-width="1" stroke="darkgreen" d="M150.00000000,120.00000000 L202.90067271,170.54101966 A90.00000000,60.00000000,0,0,1,97.09932729,170.54101966 M97.09932729,170.54101966 L150.00000000,120.00000000"></path><path fill="darkgreen" stroke-width="1" stroke="darkgreen" d="M150.00000000,120.00000000 L97.09932729,170.54101966 A90.00000000,60.00000000,0,0,1,64.40491353,103.45898034 M64.40491353,103.45898034 L150.00000000,120.00000000"></path><path fill="darkgreen" stroke-width="1" stroke="darkgreen" d="M150.00000000,120.00000000 L64.40491353,103.45898034 A90.00000000,60.00000000,0,0,1,150.00000000,62.00000000 M150.00000000,62.00000000 L150.00000000,120.00000000"></path><path fill="darkgreen" stroke-width="1" stroke="darkgreen" d="M150.00000000,120.00000000 L150.00000000,62.00000000 L150.00000000,42.00000000 L150.00000000,100.00000000 L150.00000000,120.00000000 "></path><path fill="darkgreen" stroke-width="1" stroke="darkgreen" d="M150.00000000,122.00000000 L150.00000000,64.00000000 L150.00000000,44.00000000 L150.00000000,102.00000000 L150.00000000,122.00000000 "></path><path fill="darkred" stroke-width="1" stroke="darkred" d="M150.00000000,118.00000000 L150.00000000,56.00000000 L150.00000000,36.00000000 L150.00000000,98.00000000 L150.00000000,118.00000000 "></path><path fill="darkgray" stroke-width="1" stroke="darkgray" d="M150.00000000,118.00000000 L150.00000000,56.00000000 L150.00000000,36.00000000 L150.00000000,98.00000000 L150.00000000,118.00000000 "></path><path fill="goldenrod" stroke-width="1" stroke="goldenrod" d="M150.00000000,118.00000000 L150.00000000,56.00000000 L150.00000000,36.00000000 L150.00000000,98.00000000 L150.00000000,118.00000000 "></path><path fill="green" stroke-width="1" stroke="green" d="M150.00000000,100.00000000 L150.00000000,42.00000000 A90.00000000,60.00000000,0,0,1,235.59508647,83.45898034 M235.59508647,83.45898034 L150.00000000,100.00000000"></path><path fill="green" stroke-width="1" stroke="green" d="M150.00000000,100.00000000 L235.59508647,83.45898034 A90.00000000,60.00000000,0,0,1,202.90067271,150.54101966 M202.90067271,150.54101966 L150.00000000,100.00000000"></path><path fill="green" stroke-width="1" stroke="green" d="M150.00000000,100.00000000 L202.90067271,150.54101966 A90.00000000,60.00000000,0,0,1,97.09932729,150.54101966 M97.09932729,150.54101966 L150.00000000,100.00000000"></path><path fill="green" stroke-width="1" stroke="green" d="M150.00000000,100.00000000 L97.09932729,150.54101966 A90.00000000,60.00000000,0,0,1,64.40491353,83.45898034 M64.40491353,83.45898034 L150.00000000,100.00000000"></path><path fill="green" stroke-width="1" stroke="green" d="M150.00000000,100.00000000 L64.40491353,83.45898034 A90.00000000,60.00000000,0,0,1,150.00000000,42.00000000 M150.00000000,42.00000000 L150.00000000,100.00000000"></path><text x="280" y="67" font-weight = "bold" font-size = "14">100% (1) Passed</text><circle cx="270" cy="62" r="5" stroke="darkgreen" stroke-width="1" fill="green" /><text x="280" y="97" font-weight = "bold" font-size = "14">0% (0) Failed</text><circle cx="270" cy="92" r="5" stroke="darkred" stroke-width="1" fill="red" /><text x="280" y="127" font-weight = "bold" font-size = "14">0% (0) Undefined</text><circle cx="270" cy="122" r="5" stroke="darkgray" stroke-width="1" fill="silver" /><text x="280" y="157" font-weight = "bold" font-size = "14">0% (0) Known</text><circle cx="270" cy="152" r="5" stroke="goldenrod" stroke-width="1" fill="gold" />
                    </svg>