<svg aria-label="A chart." style="overflow: hidden;" height="300"
                    width="450">
                    <defs id="defs"></defs>
                         <path fill="darkgreen" stroke-width="1" stroke="darkgreen" d="M151.00000000,118.26794919 L152.00000000,56.53589838 A90.00000000,60.00000000,0,0,1,170.71205217,57.84704234 M170.71205217,57.84704234 L151.00000000,118.26794919"></path><path fill="darkgreen" stroke-width="1" stroke="darkgreen" d="M151.00000000,118.26794919 L170.71205217,57.84704234 A90.00000000,60.00000000,0,0,1,188.60629788,61.72317093 M188.60629788,61.72317093 L151.00000000,118.26794919"></path><path fill="darkgreen" stroke-width="1" stroke="darkgreen" d="M151.00000000,118.26794919 L188.60629788,61.72317093 A90.00000000,60.00000000,0,0,1,204.90067271,67.99487872 M204.90067271,67.99487872 L151.00000000,118.26794919"></path><path fill="darkgreen" stroke-width="1" stroke="darkgreen" d="M151.00000000,118.26794919 L204.90067271,67.99487872 A90.00000000,60.00000000,0,0,1,218.88303429,76.38806200 M218.88303429,76.38806200 L151.00000000,118.26794919"></path><path fill="darkgreen" stroke-width="1" stroke="darkgreen" d="M151.00000000,118.26794919 L218.88303429,76.38806200 A90.00000000,60.00000000,0,0,1,229.94228634,86.53589838 M229.94228634,86.53589838 L151.00000000,118.26794919"></path><path fill="darkred" stroke-width="1" stroke="darkred" d="M149.00000000,121.73205081 L225.94228634,93.46410162 A90.00000000,60.00000000,0,0,1,225.94228634,153.46410162 M225.94228634,153.46410162 L149.00000000,121.73205081"></path><path fill="darkred" stroke-width="1" stroke="darkred" d="M149.00000000,121.73205081 L225.94228634,153.46410162 A90.00000000,60.00000000,0,0,1,148.00000000,183.46410162 M148.00000000,183.46410162 L149.00000000,121.73205081"></path><path fill="darkred" stroke-width="1" stroke="darkred" d="M149.00000000,121.73205081 L148.00000000,183.46410162 A90.00000000,60.00000000,0,0,1,70.05771366,153.46410162 M70.05771366,153.46410162 L149.00000000,121.73205081"></path><path fill="darkred" stroke-width="1" stroke="darkred" d="M149.00000000,121.73205081 L70.05771366,153.46410162 A90.00000000,60.00000000,0,0,1,70.05771366,93.46410162 M70.05771366,93.46410162 L149.00000000,121.73205081"></path><path fill="darkred" stroke-width="1" stroke="darkred" d="M149.00000000,121.73205081 L70.05771366,93.46410162 A90.00000000,60.00000000,0,0,1,148.00000000,63.46410162 M148.00000000,63.46410162 L149.00000000,121.73205081"></path><path fill="darkgreen" stroke-width="1" stroke="darkgreen" d="M151.00000000,118.26794919 L152.00000000,56.53589838 L152.00000000,36.53589838 L151.00000000,98.26794919 L151.00000000,118.26794919 "></path><path fill="darkred" stroke-width="1" stroke="darkred" d="M149.00000000,121.73205081 L225.94228634,93.46410162 L225.94228634,73.46410162 L149.00000000,101.73205081 L149.00000000,121.73205081 "></path><path fill="darkgreen" stroke-width="1" stroke="darkgreen" d="M151.00000000,118.26794919 L229.94228634,86.53589838 L229.94228634,66.53589838 L151.00000000,98.26794919 L151.00000000,118.26794919 "></path><path fill="darkred" stroke-width="1" stroke="darkred" d="M149.00000000,121.73205081 L148.00000000,63.46410162 L148.00000000,43.46410162 L149.00000000,101.73205081 L149.00000000,121.73205081 "></path><path fill="darkgray" stroke-width="1" stroke="darkgray" d="M150.00000000,118.00000000 L150.00000000,56.00000000 L150.00000000,36.00000000 L150.00000000,98.00000000 L150.00000000,118.00000000 "></path><path fill="goldenrod" stroke-width="1" stroke="goldenrod" d="M150.00000000,118.00000000 L150.00000000,56.00000000 L150.00000000,36.00000000 L150.00000000,98.00000000 L150.00000000,118.00000000 "></path><path fill="green" stroke-width="1" stroke="green" d="M151.00000000,98.26794919 L152.00000000,36.53589838 A90.00000000,60.00000000,0,0,1,170.71205217,37.84704234 M170.71205217,37.84704234 L151.00000000,98.26794919"></path><path fill="green" stroke-width="1" stroke="green" d="M151.00000000,98.26794919 L170.71205217,37.84704234 A90.00000000,60.00000000,0,0,1,188.60629788,41.72317093 M188.60629788,41.72317093 L151.00000000,98.26794919"></path><path fill="green" stroke-width="1" stroke="green" d="M151.00000000,98.26794919 L188.60629788,41.72317093 A90.00000000,60.00000000,0,0,1,204.90067271,47.99487872 M204.90067271,47.99487872 L151.00000000,98.26794919"></path><path fill="green" stroke-width="1" stroke="green" d="M151.00000000,98.26794919 L204.90067271,47.99487872 A90.00000000,60.00000000,0,0,1,218.88303429,56.38806200 M218.88303429,56.38806200 L151.00000000,98.26794919"></path><path fill="green" stroke-width="1" stroke="green" d="M151.00000000,98.26794919 L218.88303429,56.38806200 A90.00000000,60.00000000,0,0,1,229.94228634,66.53589838 M229.94228634,66.53589838 L151.00000000,98.26794919"></path><path fill="red" stroke-width="1" stroke="red" d="M149.00000000,101.73205081 L225.94228634,73.46410162 A90.00000000,60.00000000,0,0,1,225.94228634,133.46410162 M225.94228634,133.46410162 L149.00000000,101.73205081"></path><path fill="red" stroke-width="1" stroke="red" d="M149.00000000,101.73205081 L225.94228634,133.46410162 A90.00000000,60.00000000,0,0,1,148.00000000,163.46410162 M148.00000000,163.46410162 L149.00000000,101.73205081"></path><path fill="red" stroke-width="1" stroke="red" d="M149.00000000,101.73205081 L148.00000000,163.46410162 A90.00000000,60.00000000,0,0,1,70.05771366,133.46410162 M70.05771366,133.46410162 L149.00000000,101.73205081"></path><path fill="red" stroke-width="1" stroke="red" d="M149.00000000,101.73205081 L70.05771366,133.46410162 A90.00000000,60.00000000,0,0,1,70.05771366,73.46410162 M70.05771366,73.46410162 L149.00000000,101.73205081"></path><path fill="red" stroke-width="1" stroke="red" d="M149.00000000,101.73205081 L70.05771366,73.46410162 A90.00000000,60.00000000,0,0,1,148.00000000,43.46410162 M148.00000000,43.46410162 L149.00000000,101.73205081"></path><text x="280" y="67" font-weight = "bold" font-size = "14">17% (1) Passed</text><circle cx="270" cy="62" r="5" stroke="darkgreen" stroke-width="1" fill="green" /><text x="280" y="97" font-weight = "bold" font-size = "14">83% (5) Failed</text><circle cx="270" cy="92" r="5" stroke="darkred" stroke-width="1" fill="red" /><text x="280" y="127" font-weight = "bold" font-size = "14">0% (0) Undefined</text><circle cx="270" cy="122" r="5" stroke="darkgray" stroke-width="1" fill="silver" /><text x="280" y="157" font-weight = "bold" font-size = "14">0% (0) Known</text><circle cx="270" cy="152" r="5" stroke="goldenrod" stroke-width="1" fill="gold" />
                    </svg>