<svg aria-label="A chart." style="overflow: hidden;" height="300"
                    width="450">
                    <defs id="defs"></defs>
                         <path fill="darkgreen" stroke-width="1" stroke="darkgreen" d="M152.00000000,120.00000000 L154.00000000,60.00000000 A90.00000000,60.00000000,0,0,1,206.90067271,71.45898034 M206.90067271,71.45898034 L152.00000000,120.00000000"></path><path fill="darkgreen" stroke-width="1" stroke="darkgreen" d="M152.00000000,120.00000000 L206.90067271,71.45898034 A90.00000000,60.00000000,0,0,1,239.59508647,101.45898034 M239.59508647,101.45898034 L152.00000000,120.00000000"></path><path fill="darkgreen" stroke-width="1" stroke="darkgreen" d="M152.00000000,120.00000000 L239.59508647,101.45898034 A90.00000000,60.00000000,0,0,1,239.59508647,138.54101966 M239.59508647,138.54101966 L152.00000000,120.00000000"></path><path fill="darkgreen" stroke-width="1" stroke="darkgreen" d="M152.00000000,120.00000000 L239.59508647,138.54101966 A90.00000000,60.00000000,0,0,1,206.90067271,168.54101966 M206.90067271,168.54101966 L152.00000000,120.00000000"></path><path fill="darkgreen" stroke-width="1" stroke="darkgreen" d="M152.00000000,120.00000000 L206.90067271,168.54101966 A90.00000000,60.00000000,0,0,1,154.00000000,180.00000000 M154.00000000,180.00000000 L152.00000000,120.00000000"></path><path fill="darkred" stroke-width="1" stroke="darkred" d="M148.00000000,120.00000000 L146.00000000,180.00000000 A90.00000000,60.00000000,0,0,1,93.09932729,168.54101966 M93.09932729,168.54101966 L148.00000000,120.00000000"></path><path fill="darkred" stroke-width="1" stroke="darkred" d="M148.00000000,120.00000000 L93.09932729,168.54101966 A90.00000000,60.00000000,0,0,1,60.40491353,138.54101966 M60.40491353,138.54101966 L148.00000000,120.00000000"></path><path fill="darkred" stroke-width="1" stroke="darkred" d="M148.00000000,120.00000000 L60.40491353,138.54101966 A90.00000000,60.00000000,0,0,1,60.40491353,101.45898034 M60.40491353,101.45898034 L148.00000000,120.00000000"></path><path fill="darkred" stroke-width="1" stroke="darkred" d="M148.00000000,120.00000000 L60.40491353,101.45898034 A90.00000000,60.00000000,0,0,1,93.09932729,71.45898034 M93.09932729,71.45898034 L148.00000000,120.00000000"></path><path fill="darkred" stroke-width="1" stroke="darkred" d="M148.00000000,120.00000000 L93.09932729,71.45898034 A90.00000000,60.00000000,0,0,1,146.00000000,60.00000000 M146.00000000,60.00000000 L148.00000000,120.00000000"></path><path fill="darkgreen" stroke-width="1" stroke="darkgreen" d="M152.00000000,120.00000000 L154.00000000,60.00000000 L154.00000000,40.00000000 L152.00000000,100.00000000 L152.00000000,120.00000000 "></path><path fill="darkred" stroke-width="1" stroke="darkred" d="M148.00000000,120.00000000 L146.00000000,180.00000000 L146.00000000,160.00000000 L148.00000000,100.00000000 L148.00000000,120.00000000 "></path><path fill="darkgreen" stroke-width="1" stroke="darkgreen" d="M152.00000000,120.00000000 L154.00000000,180.00000000 L154.00000000,160.00000000 L152.00000000,100.00000000 L152.00000000,120.00000000 "></path><path fill="darkred" stroke-width="1" stroke="darkred" d="M148.00000000,120.00000000 L146.00000000,60.00000000 L146.00000000,40.00000000 L148.00000000,100.00000000 L148.00000000,120.00000000 "></path><path fill="darkgray" stroke-width="1" stroke="darkgray" d="M150.00000000,118.00000000 L150.00000000,56.00000000 L150.00000000,36.00000000 L150.00000000,98.00000000 L150.00000000,118.00000000 "></path><path fill="goldenrod" stroke-width="1" stroke="goldenrod" d="M150.00000000,118.00000000 L150.00000000,56.00000000 L150.00000000,36.00000000 L150.00000000,98.00000000 L150.00000000,118.00000000 "></path><path fill="green" stroke-width="1" stroke="green" d="M152.00000000,100.00000000 L154.00000000,40.00000000 A90.00000000,60.00000000,0,0,1,206.90067271,51.45898034 M206.90067271,51.45898034 L152.00000000,100.00000000"></path><path fill="green" stroke-width="1" stroke="green" d="M152.00000000,100.00000000 L206.90067271,51.45898034 A90.00000000,60.00000000,0,0,1,239.59508647,81.45898034 M239.59508647,81.45898034 L152.00000000,100.00000000"></path><path fill="green" stroke-width="1" stroke="green" d="M152.00000000,100.00000000 L239.59508647,81.45898034 A90.00000000,60.00000000,0,0,1,239.59508647,118.54101966 M239.59508647,118.54101966 L152.00000000,100.00000000"></path><path fill="green" stroke-width="1" stroke="green" d="M152.00000000,100.00000000 L239.59508647,118.54101966 A90.00000000,60.00000000,0,0,1,206.90067271,148.54101966 M206.90067271,148.54101966 L152.00000000,100.00000000"></path><path fill="green" stroke-width="1" stroke="green" d="M152.00000000,100.00000000 L206.90067271,148.54101966 A90.00000000,60.00000000,0,0,1,154.00000000,160.00000000 M154.00000000,160.00000000 L152.00000000,100.00000000"></path><path fill="red" stroke-width="1" stroke="red" d="M148.00000000,100.00000000 L146.00000000,160.00000000 A90.00000000,60.00000000,0,0,1,93.09932729,148.54101966 M93.09932729,148.54101966 L148.00000000,100.00000000"></path><path fill="red" stroke-width="1" stroke="red" d="M148.00000000,100.00000000 L93.09932729,148.54101966 A90.00000000,60.00000000,0,0,1,60.40491353,118.54101966 M60.40491353,118.54101966 L148.00000000,100.00000000"></path><path fill="red" stroke-width="1" stroke="red" d="M148.00000000,100.00000000 L60.40491353,118.54101966 A90.00000000,60.00000000,0,0,1,60.40491353,81.45898034 M60.40491353,81.45898034 L148.00000000,100.00000000"></path><path fill="red" stroke-width="1" stroke="red" d="M148.00000000,100.00000000 L60.40491353,81.45898034 A90.00000000,60.00000000,0,0,1,93.09932729,51.45898034 M93.09932729,51.45898034 L148.00000000,100.00000000"></path><path fill="red" stroke-width="1" stroke="red" d="M148.00000000,100.00000000 L93.09932729,51.45898034 A90.00000000,60.00000000,0,0,1,146.00000000,40.00000000 M146.00000000,40.00000000 L148.00000000,100.00000000"></path><text x="280" y="67" font-weight = "bold" font-size = "14">50% (1) Passed</text><circle cx="270" cy="62" r="5" stroke="darkgreen" stroke-width="1" fill="green" /><text x="280" y="97" font-weight = "bold" font-size = "14">50% (1) Failed</text><circle cx="270" cy="92" r="5" stroke="darkred" stroke-width="1" fill="red" /><text x="280" y="127" font-weight = "bold" font-size = "14">0% (0) Undefined</text><circle cx="270" cy="122" r="5" stroke="darkgray" stroke-width="1" fill="silver" /><text x="280" y="157" font-weight = "bold" font-size = "14">0% (0) Known</text><circle cx="270" cy="152" r="5" stroke="goldenrod" stroke-width="1" fill="gold" />
                    </svg>